<svg width="20" height="23" viewBox="0 0 20 23" fill="none" xmlns="http://www.w3.org/2000/svg">
<path d="M19.561 0.256714H19.541C4.23582 1.70479 -0.852617 9.87749 1.24262 22.7713H1.26258C16.5478 21.3034 21.6363 13.1307 19.561 0.256714ZM14.6122 6.82264C14.9714 6.78297 15.3506 6.70362 15.7497 6.68378C16.1488 6.64411 16.5678 6.62428 17.0068 6.68378C16.6875 7.00117 16.3283 7.21937 15.9492 7.3979C15.5701 7.57643 15.171 7.71529 14.732 7.7748C14.293 7.83431 13.834 7.79464 13.4349 7.69545C13.3551 7.67562 13.2753 7.65578 13.1955 7.63594C12.1578 8.86582 11.1202 10.0957 10.1224 11.3256C10.5814 11.2264 11.0204 11.1272 11.4794 11.0478C12.0381 10.9487 12.6168 10.8495 13.2154 10.79C13.814 10.7305 14.4326 10.7106 15.0912 10.7701C14.6322 11.2462 14.0934 11.5834 13.5347 11.8611C12.976 12.1389 12.3773 12.3174 11.7587 12.4364C11.1401 12.5554 10.5016 12.5951 9.86303 12.5158C9.66348 12.4959 9.46395 12.4562 9.2644 12.4166C8.36644 13.5671 7.48843 14.7176 6.61043 15.9078C6.53061 16.007 6.45079 16.1062 6.39092 16.2252C6.45079 16.2054 6.51064 16.1855 6.57051 16.1657C7.12924 15.9872 7.66802 15.8086 8.22675 15.6698C8.78548 15.5111 9.34421 15.3722 9.94285 15.2731C10.5415 15.1739 11.1401 15.0747 11.8186 15.0945C11.3995 15.6103 10.9007 15.9872 10.3619 16.3244C9.82312 16.6418 9.24443 16.8798 8.64579 17.0583C8.04715 17.217 7.40862 17.3162 6.77007 17.2964C6.43084 17.2766 6.0916 17.2567 5.75238 17.1575C4.93424 18.3081 4.13604 19.4586 3.29795 20.6289C3.81677 18.9825 4.53514 17.3956 5.37323 15.888C5.2535 15.5309 5.1737 15.1739 5.13379 14.8168C5.05397 14.2019 5.05397 13.5671 5.13379 12.9522C5.21361 12.3372 5.39319 11.7223 5.6526 11.147C5.93196 10.5718 6.29115 10.0163 6.80997 9.59977C6.82992 10.2742 6.79002 10.8495 6.75011 11.4247C6.7102 12 6.65033 12.5753 6.57051 13.1307C6.5306 13.4481 6.47075 13.7853 6.41088 14.1027C7.1093 12.9918 7.86757 11.9008 8.68571 10.8693C8.62585 10.6709 8.56598 10.4726 8.50611 10.2742C8.36643 9.69895 8.30658 9.08402 8.34649 8.48892C8.36644 7.89382 8.48617 7.27888 8.68571 6.70362C8.90521 6.12836 9.20453 5.57293 9.68344 5.13653C9.74331 5.7713 9.76325 6.34656 9.78321 6.90199C9.78321 7.45741 9.78322 7.993 9.76326 8.54843C9.74331 8.90549 9.72335 9.28238 9.68344 9.65928C10.6014 8.56827 11.5791 7.53676 12.6168 6.54493C12.5968 6.48542 12.5968 6.44575 12.5769 6.40607C12.4771 5.96967 12.4372 5.49359 12.4771 5.03734C12.517 4.56126 12.6367 4.10502 12.8163 3.68845C12.9959 3.27188 13.2354 2.87515 13.5546 2.51809C13.6145 2.99417 13.5945 3.45041 13.5546 3.88682L13.4349 5.13653C13.415 5.37457 13.395 5.63244 13.3751 5.87048C14.6721 4.68028 16.049 3.58927 17.5256 2.63711C16.3084 4.12486 15.0512 5.53326 13.834 6.9615C14.0934 6.88215 14.3528 6.84248 14.6122 6.82264Z" fill="#A2228F"/>
</svg>
